<?xml version="1.0" encoding="iso-8859-1"?>
<!-- Generator: Adobe Illustrator 19.0.0, SVG Export Plug-In . SVG Version: 6.00 Build 0)  -->
<svg version="1.1" id="Capa_1" xmlns="http://www.w3.org/2000/svg" xmlns:xlink="http://www.w3.org/1999/xlink" x="0px" y="0px"
	 viewBox="0 0 360 360" style="enable-background:new 0 0 360 360;" xml:space="preserve">
<g>
	<polygon style="fill:#54B5EA;" points="89.6,168.99 180,115.39 270.4,169.79 180,221.79 	"/>
	<polygon style="fill:#54B5EA;" points="89.6,276.19 89.6,168.99 180,221.79 180,330.59 	"/>
</g>
<polygon style="fill:#84DBFF;" points="180,221.79 270.4,169.79 270.4,276.19 180,330.59 "/>
<path style="fill:#3F5A6C;" d="M345.6,279.39c-4,0.8-7.2,4.8-7.2,8.8l3.2,24l-63.2-40v-102.4l0,0c0-0.8,0-1.6-0.8-2.4v-0.8
	c0-0.8-0.8-1.6-1.6-2.4l0,0c0-0.8-0.8-0.8-0.8-1.6l-87.2-52v-76l18.4,15.2c3.2,2.4,8.8,1.6,11.2-1.6c2.4-3.2,1.6-8-0.8-10.4
	l-32-26.4H184l-0.8-0.8h-0.8h-1.6H180h-0.8h-0.8h-0.8h-0.8l-1.6,0.8h-0.8l-31.2,26.4c-3.2,3.2-3.2,8,0,11.2
	c2.4,3.2,7.2,3.2,10.4,0.8l18.4-15.2v76l-87.2,51.2c-2.4,1.6-4,4-4,7.2l0,0l0,0v102.4l-63.2,40l3.2-23.2c0.8-4.8-2.4-8.8-7.2-8.8
	c-4.8-0.8-8.8,2.4-8.8,7.2l0,0L0,327.39v0.8c0,0.8,0,2.4,0.8,3.2c0,0.8,0.8,0.8,0.8,1.6c0,0.8,0.8,0.8,0.8,1.6l0.8,0.8l1.6,0.8h0.8
	l39.2,12.8c4,1.6,8.8-1.6,9.6-5.6s-0.8-8-4.8-9.6l-23.2-8l63.2-40l86.4,51.2l0,0l0.8,0.8h0.8c1.6,0,2.4,0,4,0h0.8l1.6-0.8l0,0
	l86.4-51.2l62.4,40l-22.4,7.2c-4,1.6-6.4,6.4-4.8,10.4c1.6,4,5.6,6.4,9.6,4.8l39.2-12.8h0.8l1.6-0.8l0.8-0.8c0,0,0.8-0.8,0.8-1.6
	c0-0.8,0.8-0.8,0.8-1.6c0-0.8,0.8-1.6,0.8-3.2v-0.8l-4.8-40.8C353.6,281.79,350.4,278.59,345.6,279.39z M172,316.19l-74.4-44.8
	v-88.8l74.4,44V316.19z M180,212.99l-75.2-44l75.2-44l75.2,44.8L180,212.99z M262.4,271.39l-74.4,44.8v-89.6l74.4-43.2V271.39z"/>
<g>
</g>
<g>
</g>
<g>
</g>
<g>
</g>
<g>
</g>
<g>
</g>
<g>
</g>
<g>
</g>
<g>
</g>
<g>
</g>
<g>
</g>
<g>
</g>
<g>
</g>
<g>
</g>
<g>
</g>
</svg>
